<svg xmlns="http://www.w3.org/2000/svg" viewBox="0 0 30 30" shape-rendering="crispEdges"><path fill="#333333" d="M0 0h3v3H0zM3 0h3v3H3zM6 0h3v3H6zM9 0h3v3H9zM12 0h3v3h-3z"/><path fill="#111111" d="M15 0h3v3h-3zM18 0h3v3h-3zM21 0h3v3h-3zM24 0h3v3h-3zM27 0h3v3h-3z"/><path fill="#333333" d="M0 3h3v3H0zM3 3h3v3H3zM6 3h3v3H6z"/><path fill="#111111" d="M9 3h3v3H9zM12 3h3v3h-3z"/><path fill="#666666" d="M15 3h3v3h-3zM18 3h3v3h-3zM21 3h3v3h-3zM24 3h3v3h-3zM27 3h3v3h-3z"/><path fill="#333333" d="M0 6h3v3H0zM3 6h3v3H3z"/><path fill="#111111" d="M6 6h3v3H6z"/><path fill="#666666" d="M9 6h3v3H9zM12 6h3v3h-3z"/><path fill="#333333" d="M0 9h3v3H0z"/><path fill="#111111" d="M3 9h3v3H3z"/><path fill="#666666" d="M6 9h3v3H6z"/><path fill="#333333" d="M0 12h3v3H0z"/><path fill="#111111" d="M3 12h3v3H3z"/><path fill="#666666" d="M6 12h3v3H6z"/><path fill="#111111" d="M0 15h3v3H0z"/><path fill="#666666" d="M3 15h3v3H3z"/><path fill="#111111" d="M0 18h3v3H0z"/><path fill="#666666" d="M3 18h3v3H3z"/><path fill="#111111" d="M0 21h3v3H0z"/><path fill="#666666" d="M3 21h3v3H3z"/><path fill="#111111" d="M0 24h3v3H0z"/><path fill="#666666" d="M3 24h3v3H3z"/><path fill="#111111" d="M0 27h3v3H0z"/><path fill="#666666" d="M3 27h3v3H3z"/></svg>