<svg xmlns="http://www.w3.org/2000/svg" viewBox="0 0 30 30" shape-rendering="crispEdges"><path fill="#222222" d="M24 0h3v3h-3z"/><path fill="#111111" d="M27 0h3v3h-3z"/><path fill="#222222" d="M24 3h3v3h-3z"/><path fill="#111111" d="M27 3h3v3h-3z"/><path fill="#222222" d="M24 6h3v3h-3z"/><path fill="#111111" d="M27 6h3v3h-3z"/><path fill="#222222" d="M24 9h3v3h-3z"/><path fill="#111111" d="M27 9h3v3h-3z"/><path fill="#222222" d="M24 12h3v3h-3z"/><path fill="#111111" d="M27 12h3v3h-3z"/><path fill="#222222" d="M21 15h3v3h-3z"/><path fill="#111111" d="M24 15h3v3h-3z"/><path fill="#333333" d="M27 15h3v3h-3z"/><path fill="#222222" d="M21 18h3v3h-3z"/><path fill="#111111" d="M24 18h3v3h-3z"/><path fill="#333333" d="M27 18h3v3h-3z"/><path fill="#222222" d="M15 21h3v3h-3zM18 21h3v3h-3z"/><path fill="#111111" d="M21 21h3v3h-3z"/><path fill="#333333" d="M24 21h3v3h-3zM27 21h3v3h-3z"/><path fill="#222222" d="M0 24h3v3H0zM3 24h3v3H3zM6 24h3v3H6zM9 24h3v3H9zM12 24h3v3h-3z"/><path fill="#111111" d="M15 24h3v3h-3zM18 24h3v3h-3z"/><path fill="#333333" d="M21 24h3v3h-3zM24 24h3v3h-3zM27 24h3v3h-3z"/><path fill="#111111" d="M0 27h3v3H0zM3 27h3v3H3zM6 27h3v3H6zM9 27h3v3H9zM12 27h3v3h-3z"/><path fill="#333333" d="M15 27h3v3h-3zM18 27h3v3h-3zM21 27h3v3h-3zM24 27h3v3h-3zM27 27h3v3h-3z"/></svg>