<svg xmlns="http://www.w3.org/2000/svg" viewBox="0 0 30 30" shape-rendering="crispEdges"><path fill="#111111" d="M0 0h3v3H0z"/><path fill="#666666" d="M3 0h3v3H3z"/><path fill="#111111" d="M0 3h3v3H0z"/><path fill="#666666" d="M3 3h3v3H3z"/><path fill="#111111" d="M0 6h3v3H0z"/><path fill="#666666" d="M3 6h3v3H3z"/><path fill="#111111" d="M0 9h3v3H0z"/><path fill="#222222" d="M3 9h3v3H3z"/><path fill="#111111" d="M0 12h3v3H0z"/><path fill="#222222" d="M3 12h3v3H3z"/><path fill="#333333" d="M0 15h3v3H0z"/><path fill="#111111" d="M3 15h3v3H3z"/><path fill="#222222" d="M6 15h3v3H6z"/><path fill="#333333" d="M0 18h3v3H0z"/><path fill="#111111" d="M3 18h3v3H3z"/><path fill="#222222" d="M6 18h3v3H6z"/><path fill="#333333" d="M0 21h3v3H0zM3 21h3v3H3z"/><path fill="#111111" d="M6 21h3v3H6z"/><path fill="#222222" d="M9 21h3v3H9zM12 21h3v3h-3z"/><path fill="#333333" d="M0 24h3v3H0zM3 24h3v3H3zM6 24h3v3H6z"/><path fill="#111111" d="M9 24h3v3H9zM12 24h3v3h-3z"/><path fill="#222222" d="M15 24h3v3h-3zM18 24h3v3h-3zM21 24h3v3h-3zM24 24h3v3h-3zM27 24h3v3h-3z"/><path fill="#333333" d="M0 27h3v3H0zM3 27h3v3H3zM6 27h3v3H6zM9 27h3v3H9zM12 27h3v3h-3z"/><path fill="#111111" d="M15 27h3v3h-3zM18 27h3v3h-3zM21 27h3v3h-3zM24 27h3v3h-3zM27 27h3v3h-3z"/></svg>