<svg xmlns="http://www.w3.org/2000/svg" viewBox="0 0 30 30" shape-rendering="crispEdges"><path fill="#111111" d="M0 0h3v3H0zM3 0h3v3H3zM6 0h3v3H6zM9 0h3v3H9zM12 0h3v3h-3z"/><path fill="#333333" d="M15 0h3v3h-3zM18 0h3v3h-3zM21 0h3v3h-3zM24 0h3v3h-3zM27 0h3v3h-3z"/><path fill="#666666" d="M0 3h3v3H0zM3 3h3v3H3zM6 3h3v3H6zM9 3h3v3H9zM12 3h3v3h-3z"/><path fill="#111111" d="M15 3h3v3h-3zM18 3h3v3h-3z"/><path fill="#333333" d="M21 3h3v3h-3zM24 3h3v3h-3zM27 3h3v3h-3z"/><path fill="#666666" d="M15 6h3v3h-3zM18 6h3v3h-3z"/><path fill="#111111" d="M21 6h3v3h-3z"/><path fill="#333333" d="M24 6h3v3h-3zM27 6h3v3h-3z"/><path fill="#666666" d="M21 9h3v3h-3z"/><path fill="#111111" d="M24 9h3v3h-3z"/><path fill="#333333" d="M27 9h3v3h-3z"/><path fill="#666666" d="M21 12h3v3h-3z"/><path fill="#111111" d="M24 12h3v3h-3z"/><path fill="#333333" d="M27 12h3v3h-3z"/><path fill="#666666" d="M24 15h3v3h-3z"/><path fill="#111111" d="M27 15h3v3h-3z"/><path fill="#666666" d="M24 18h3v3h-3z"/><path fill="#111111" d="M27 18h3v3h-3z"/><path fill="#222222" d="M24 21h3v3h-3z"/><path fill="#111111" d="M27 21h3v3h-3z"/><path fill="#222222" d="M24 24h3v3h-3z"/><path fill="#111111" d="M27 24h3v3h-3z"/><path fill="#222222" d="M24 27h3v3h-3z"/><path fill="#111111" d="M27 27h3v3h-3z"/></svg>